<?xml version="1.0" encoding="UTF-8" standalone="no"?>
<!DOCTYPE svg PUBLIC "-//W3C//DTD SVG 1.1//EN" "http://www.w3.org/Graphics/SVG/1.1/DTD/svg11.dtd">
<svg version="1.1" xmlns="http://www.w3.org/2000/svg" xmlns:xlink="http://www.w3.org/1999/xlink" preserveAspectRatio="xMidYMid meet" viewBox="0 0 640 640" width="120" height="120"><defs><path d="M526.08 119.88L531.83 128.05L537.27 136.44L542.4 145.05L547.19 153.87L551.65 162.9L555.77 172.11L559.53 181.52L562.93 191.09L565.96 200.84L568.62 210.75L570.89 220.8L572.77 231L574.24 241.34L575.31 251.8L575.95 262.38L576.17 273.06L575.95 283.75L575.31 294.33L574.24 304.79L572.77 315.12L570.89 325.32L568.62 335.38L565.96 345.29L562.93 355.03L559.53 364.61L555.77 374.01L551.65 383.23L547.19 392.25L542.4 401.07L537.27 409.69L531.83 418.08L526.08 426.25L520.03 434.18L513.68 441.87L507.05 449.31L500.14 456.48L492.96 463.39L485.53 470.02L477.84 476.37L469.9 482.42L461.74 488.18L453.34 493.62L444.73 498.74L435.91 503.53L426.88 507.99L417.67 512.11L408.27 515.87L398.69 519.27L388.94 522.31L379.04 524.96L368.98 527.24L358.78 529.11L348.45 530.59L337.99 531.65L327.41 532.29L316.72 532.51L306.03 532.29L295.45 531.65L284.99 530.59L274.66 529.11L264.46 527.24L254.4 524.96L244.5 522.31L234.75 519.27L225.17 515.87L215.77 512.11L206.55 507.99L197.53 503.53L188.71 498.74L180.1 493.62L171.7 488.18L163.53 482.42L155.6 476.37L147.91 470.02L140.48 463.39L133.3 456.48L126.39 449.31L119.76 441.87L113.41 434.18L107.36 426.25L101.61 418.08L96.17 409.69L91.04 401.07L86.25 392.25L81.79 383.23L77.67 374.01L73.91 364.61L70.51 355.03L67.47 345.29L64.82 335.38L63.83 331.02L66.5 334.25L73.13 341.69L80.04 348.87L87.22 355.78L94.66 362.41L102.35 368.76L110.28 374.81L118.45 380.56L126.84 386L135.45 391.12L144.27 395.92L153.3 400.38L162.52 404.49L171.92 408.26L181.5 411.66L191.24 414.69L201.15 417.35L211.2 419.62L221.4 421.5L231.74 422.97L242.2 424.03L252.78 424.68L263.46 424.89L274.15 424.68L284.73 424.03L295.19 422.97L305.52 421.5L315.72 419.62L325.78 417.35L335.69 414.69L345.43 411.66L355.01 408.26L364.41 404.49L373.63 400.38L382.65 395.92L391.47 391.12L400.09 386L408.48 380.56L416.65 374.81L424.58 368.76L432.27 362.41L439.71 355.78L446.88 348.87L453.79 341.69L460.43 334.25L466.77 326.56L472.83 318.63L478.58 310.46L484.02 302.07L489.14 293.46L493.93 284.64L498.39 275.61L502.51 266.39L506.27 256.99L509.68 247.42L512.71 237.67L515.37 227.76L517.64 217.71L519.51 207.51L520.99 197.17L522.05 186.71L522.69 176.13L522.91 165.45L522.69 154.76L522.05 144.18L520.99 133.72L519.51 123.39L517.64 113.19L516.35 107.49L520.03 111.95L526.08 119.88Z" id="a2gcU4kyQK"></path></defs><g><g><g><use xlink:href="#a2gcU4kyQK" opacity="1" fill="#FFFFFF" fill-opacity="1"></use></g></g></g></svg>